<?xml version="1.0" encoding="utf-8"?>
<!-- Generator: Adobe Illustrator 25.2.1, SVG Export Plug-In . SVG Version: 6.00 Build 0)  -->
<svg version="1.1" id="Layer_1" xmlns="http://www.w3.org/2000/svg" xmlns:xlink="http://www.w3.org/1999/xlink" x="0px" y="0px"
	 viewBox="0 0 128.9 104" style="enable-background:new 0 0 128.9 104;" xml:space="preserve">
<style type="text/css">
	.st0{fill:#FFFFFF;}
	.st1{fill:#911FFF;}
</style>
<path class="st0" d="M53.4,104c-4.1,0-8.3,0-13.2-0.1l-0.2,0l-0.2,0c-11.2-0.5-20.9-4.3-27.9-11C8.3,89.4,5.4,85.4,3.4,81
	C1.1,76.1,0,70.9,0,65.5c0-8.6,3-17.1,8.4-24c4.5-5.8,10.6-10.2,17.4-12.8c0.3-1.3,0.7-2.6,1.2-3.8c1.7-4.5,4.2-8.6,7.5-12.2
	c3.5-3.8,7.6-6.8,12.3-9C51.7,1.6,57,0.4,62.6,0.1c0.1,0,0.4,0,0.4,0C67.3,0,71.3,0,75.4,0c4.1,0,8.3,0,13.2,0.1l0.2,0l0.2,0
	c11.3,0.5,20.9,4.3,27.9,11c3.6,3.5,6.5,7.5,8.5,11.9c2.2,4.9,3.4,10.1,3.4,15.5c0,8.6-3,17.1-8.4,24c-4.5,5.8-10.6,10.2-17.4,12.8
	c-0.3,1.3-0.7,2.6-1.2,3.8c-1.7,4.5-4.2,8.6-7.5,12.2c-3.5,3.8-7.6,6.8-12.3,9c-4.8,2.2-10.2,3.5-15.8,3.7c-0.1,0-0.4,0-0.4,0
	C61.6,104,57.5,104,53.4,104z"/>
<path class="st1" d="M118.6,26.2c-1.6-3.5-3.9-6.7-6.9-9.6c-5.6-5.4-13.6-8.5-22.9-8.9l-0.1,0l-0.1,0c-4.9-0.1-9-0.1-13-0.1
	c-4,0-8,0-12.3,0.1h0c-0.1,0-0.2,0-0.2,0c-4.6,0.2-9,1.2-12.9,3c-3.8,1.7-7.1,4.2-9.9,7.2c-2.6,2.8-4.6,6.1-6,9.7
	c-0.9,2.3-1.5,4.7-1.8,7l-1.5,0.4c-6.4,1.8-12.3,5.7-16.5,11.1C10,51.8,7.6,58.7,7.6,65.5c0,4.3,0.9,8.4,2.7,12.3
	c1.6,3.5,3.9,6.7,6.9,9.6c5.6,5.4,13.6,8.5,22.9,8.9l0.1,0l0.1,0c4.9,0.1,9,0.1,13,0.1c4,0,8,0,12.3-0.1h0c0.1,0,0.2,0,0.2,0
	c4.6-0.2,9-1.2,12.9-3c3.8-1.7,7.1-4.2,9.9-7.2c2.6-2.8,4.6-6.1,6-9.7c0.9-2.3,1.5-4.7,1.8-7l1.5-0.4c6.4-1.8,12.3-5.7,16.5-11.1
	c4.4-5.6,6.8-12.4,6.8-19.3C121.2,34.2,120.3,30.1,118.6,26.2z M95,58.1c-0.4-2.6-3.3-9.8-8-13.1c0,0,0-0.1,0-0.1c0.5,0,0.9,0,1.4,0
	c4.7,0,7.3-3.1,7.3-6.1c0-1.4-0.5-2.9-1.6-4.1c-1.1-1.2-2.9-2-5.1-2c-7.8-0.1-16.9-0.1-24.8,0c-2.1,0-4,0.9-5.1,2
	c-1.1,1.2-1.6,2.7-1.6,4.1c0,1.5,0.8,3,1.7,4c1.7,1.8,5.1,2.5,7.1,2.9c7.2,1.4,10.8,3.5,13.9,6.8c2.9,3,5.2,7.6,5.2,13.1v0
	c0,9.2-6.8,19.1-20.1,19.6c0,0,0,0,0,0c-8.7,0.2-16.2,0.2-24.9,0c-6.5-0.3-11.9-2.1-15.7-5.8c-3.8-3.6-6.2-8.3-6.2-13.9
	c0-9.2,6.7-17.3,15.1-19.7c0.4,2.6,3.3,9.8,8,13.1c0,0,0,0.1,0,0.1c-0.5,0-0.9,0-1.4,0c-4.7,0-7.3,3.1-7.3,6.1
	c0,1.4,0.5,2.9,1.6,4.1c1.1,1.2,2.9,2,5.1,2c7.8,0.1,16.9,0.1,24.8,0c2.1,0,4-0.9,5.1-2c1.1-1.2,1.6-2.7,1.6-4.1c0-1.5-0.8-3-1.7-4
	c-1.7-1.8-5.1-2.5-7.1-2.9c-7.2-1.4-10.8-3.5-13.9-6.8c-2.9-3-5.2-7.6-5.2-13.1v0c0-9.2,6.8-19.1,20.1-19.6c0,0,0,0,0,0
	c8.7-0.2,16.2-0.2,24.9,0c6.5,0.3,11.9,2.1,15.7,5.8c3.8,3.6,6.2,8.3,6.2,13.9C110.1,47.7,103.4,55.8,95,58.1z"/>
</svg>
